<svg width="100" height="29" viewBox="0 0 100 29" fill="none" xmlns="http://www.w3.org/2000/svg">
<rect width="100" height="29" rx="14.5" fill="#F9F9F9"/>
<path d="M26.6499 13C26.326 11.2102 24.8942 10.1534 23.1385 10.1534C20.9055 10.1534 19.2862 11.875 19.2862 14.6364C19.2862 17.3977 20.9055 19.1193 23.1385 19.1193C24.8942 19.1193 26.326 18.0625 26.6499 16.2727H25.593C25.3374 17.483 24.2976 18.1307 23.1385 18.1307C21.5533 18.1307 20.3089 16.9034 20.3089 14.6364C20.3089 12.3693 21.5533 11.142 23.1385 11.142C24.2976 11.142 25.3374 11.7898 25.593 13H26.6499ZM30.8803 19.1364C32.6531 19.1364 33.8462 17.7898 33.8462 15.7614C33.8462 13.7159 32.6531 12.3693 30.8803 12.3693C29.1076 12.3693 27.9144 13.7159 27.9144 15.7614C27.9144 17.7898 29.1076 19.1364 30.8803 19.1364ZM30.8803 18.233C29.5337 18.233 28.9201 17.0739 28.9201 15.7614C28.9201 14.4489 29.5337 13.2727 30.8803 13.2727C32.2269 13.2727 32.8406 14.4489 32.8406 15.7614C32.8406 17.0739 32.2269 18.233 30.8803 18.233ZM35.8619 12.4545H34.7028L36.7823 15.7273L34.7028 19H35.8619L37.43 16.4602L38.9982 19H40.1573L38.0437 15.7273L40.1573 12.4545H38.9982L37.43 15.1307L35.8619 12.4545ZM41.5923 21.4545H42.598V17.9943H42.6832C42.9048 18.3523 43.331 19.1364 44.5923 19.1364C46.2287 19.1364 47.3707 17.8239 47.3707 15.7443C47.3707 13.6818 46.2287 12.3693 44.5753 12.3693C43.2969 12.3693 42.9048 13.1534 42.6832 13.4943H42.5639V12.4545H41.5923V21.4545ZM42.581 15.7273C42.581 14.2614 43.2287 13.2727 44.456 13.2727C45.7344 13.2727 46.3651 14.3466 46.3651 15.7273C46.3651 17.125 45.7173 18.233 44.456 18.233C43.2457 18.233 42.581 17.2102 42.581 15.7273ZM50.831 19.1534C51.973 19.1534 52.5696 18.5398 52.7741 18.1136H52.8253V19H53.831V14.6875C53.831 12.608 52.2457 12.3693 51.4105 12.3693C50.4219 12.3693 49.2969 12.7102 48.7855 13.9034L49.7401 14.2443C49.9616 13.767 50.4858 13.2557 51.4446 13.2557C52.3693 13.2557 52.8253 13.7457 52.8253 14.5852V14.6193C52.8253 15.1051 52.331 15.0625 51.1378 15.2159C49.9233 15.3736 48.598 15.642 48.598 17.142C48.598 18.4205 49.5866 19.1534 50.831 19.1534ZM50.9844 18.25C50.1832 18.25 49.6037 17.892 49.6037 17.1932C49.6037 16.4261 50.3026 16.1875 51.0866 16.0852C51.5128 16.0341 52.6548 15.9148 52.8253 15.7102V16.6307C52.8253 17.4489 52.1776 18.25 50.9844 18.25ZM56.6722 12.4545H55.6665V19H56.6722V16.2045H59.8086V19H60.8143V12.4545H59.8086V15.267H56.6722V12.4545ZM63.6566 17.517V12.4545H62.6509V19H63.8271L66.9634 13.9375V19H67.9691V12.4545H66.81L63.6566 17.517ZM68.9205 13.392H71.0852V19H72.0909V13.392H74.2386V12.4545H68.9205V13.392ZM76.7113 14.8239V12.4545H75.7056V19H78.4499C79.984 19 80.8192 18.0625 80.8192 16.8864C80.8192 15.6932 79.984 14.8239 78.4499 14.8239H76.7113ZM76.7113 15.7614H78.4499C79.2468 15.7614 79.8136 16.2472 79.8136 16.9375C79.8136 17.598 79.2468 18.0625 78.4499 18.0625H76.7113V15.7614Z" fill="black"/>
</svg>
